<svg width="1440" height="333" viewBox="0 0 1440 333" fill="none" xmlns="http://www.w3.org/2000/svg">
<path id="Vector" d="M-240 332.8L-182.7 291.2C-125.4 249.6 -10.8 166.4 103.8 166.4C218.4 166.4 333 249.6 447.6 249.6C562.2 249.6 676.8 166.4 791.4 152.62C906 137.8 1020.6 195 1135.2 180.18C1249.8 166.4 1364.4 83.2 1421.7 41.6L1479 0V332.8H1421.7C1364.4 332.8 1249.8 332.8 1135.2 332.8C1020.6 332.8 906 332.8 791.4 332.8C676.8 332.8 562.2 332.8 447.6 332.8C333 332.8 218.4 332.8 103.8 332.8C-10.8 332.8 -125.4 332.8 -182.7 332.8H-240Z" fill="#4581F6"/>
</svg>
